# Blender v2.78 (sub 0) OBJ File: 'GAME.blend'
# www.blender.org
mtllib type 1.mtl
o Cube.002_Cube.003
v 3.560280 0.005114 1.284409
v 3.712381 0.005114 1.284409
v 3.560280 0.005114 1.132308
v 3.712381 0.005114 1.132308
v 3.560280 0.005114 -1.529465
v 3.712381 0.005114 -1.529465
v 3.560280 0.005114 -1.681566
v 3.712381 0.005114 -1.681566
v 3.560280 0.005114 -4.343339
v 3.712381 0.005114 -4.343339
v 3.560280 0.005114 -4.495440
v 3.712381 0.005114 -4.495440
v 3.560280 0.005114 -7.157214
v 3.712381 0.005114 -7.157214
v 3.560280 0.005114 -7.309315
v 3.712381 0.005114 -7.309315
v 3.560280 0.005114 -9.971087
v 3.712381 0.005114 -9.971087
v 3.560280 0.005114 -10.123189
v 3.712381 0.005114 -10.123189
v 3.560280 0.005114 -12.784962
v 3.712381 0.005114 -12.784962
v 3.560280 0.005114 -12.937063
v 3.712381 0.005114 -12.937063
v 2.310792 0.005114 1.284409
v 2.158690 0.005114 1.284409
v 2.310792 0.005114 1.132308
v 2.158690 0.005114 1.132308
v 2.310792 0.005114 -1.529465
v 2.158690 0.005114 -1.529465
v 2.310792 0.005114 -1.681566
v 2.158690 0.005114 -1.681566
v 2.310792 0.005114 -4.343339
v 2.158690 0.005114 -4.343339
v 2.310792 0.005114 -4.495440
v 2.158690 0.005114 -4.495440
v 2.310792 0.005114 -7.157214
v 2.158690 0.005114 -7.157214
v 2.310792 0.005114 -7.309315
v 2.158690 0.005114 -7.309315
v 2.310792 0.005114 -9.971087
v 2.158690 0.005114 -9.971087
v 2.310792 0.005114 -10.123189
v 2.158690 0.005114 -10.123189
v 2.310792 0.005114 -12.784962
v 2.158690 0.005114 -12.784962
v 2.310792 0.005114 -12.937063
v 2.158690 0.005114 -12.937063
v 3.791002 0.000000 1.446939
v 3.791002 0.000000 -1.446939
v 3.791002 1.140846 1.446939
v 3.716857 1.192525 1.446939
v 3.769286 1.177389 1.446939
v 3.716857 1.192525 -1.446939
v 3.791002 1.140846 -1.446939
v 3.769286 1.177389 -1.446939
v 2.080070 0.000000 1.446939
v 2.080070 0.000000 -1.446939
v 2.080070 1.140846 1.446939
v 2.154214 1.192525 1.446939
v 2.101786 1.177389 1.446939
v 2.154214 1.192525 -1.446939
v 2.080070 1.140846 -1.446939
v 2.101786 1.177389 -1.446939
v 3.791002 0.000000 -4.130770
v 3.716857 1.192525 -4.130770
v 3.791002 1.140846 -4.130770
v 3.769286 1.177389 -4.130770
v 2.080070 0.000000 -4.130770
v 2.154214 1.192525 -4.130770
v 2.080070 1.140846 -4.130770
v 2.101786 1.177389 -4.130770
v 3.791002 0.000000 -13.091817
v 3.716857 1.192525 -13.091817
v 3.791002 1.140846 -13.091817
v 3.769286 1.177389 -13.091817
v 2.080070 0.000000 -13.091817
v 2.154214 1.192525 -13.091817
v 2.080070 1.140846 -13.091817
v 2.101786 1.177389 -13.091817
v 2.080070 1.140846 -5.410919
v 2.080070 1.140846 -6.691069
v 2.080070 1.140846 -7.971219
v 2.080070 1.140846 -9.251368
v 2.080070 1.140846 -10.531517
v 2.080070 1.140846 -11.811667
v 2.101786 1.177389 -11.811667
v 2.101786 1.177389 -10.531518
v 2.101786 1.177389 -9.251369
v 2.101786 1.177389 -7.971219
v 2.101786 1.177389 -6.691070
v 2.101786 1.177389 -5.410920
v 3.791002 0.000000 -5.410919
v 3.791002 0.000000 -6.691069
v 3.791002 0.000000 -7.971219
v 3.791002 0.000000 -9.251368
v 3.791002 0.000000 -10.531517
v 3.791002 0.000000 -11.811667
v 2.080070 0.000000 -11.811667
v 2.080070 0.000000 -10.531518
v 2.080070 0.000000 -9.251369
v 2.080070 0.000000 -7.971219
v 2.080070 0.000000 -6.691070
v 2.080070 0.000000 -5.410920
v 3.769286 1.177389 -5.410919
v 3.769286 1.177389 -6.691069
v 3.769286 1.177389 -7.971219
v 3.769286 1.177389 -9.251368
v 3.769286 1.177389 -10.531517
v 3.769286 1.177389 -11.811667
v 3.791002 1.140846 -11.811667
v 3.791002 1.140846 -10.531518
v 3.791002 1.140846 -9.251369
v 3.791002 1.140846 -7.971219
v 3.791002 1.140846 -6.691070
v 3.791002 1.140846 -5.410920
v 2.154214 1.192525 -5.410919
v 2.154214 1.192525 -6.691069
v 2.154214 1.192525 -7.971219
v 2.154214 1.192525 -9.251368
v 2.154214 1.192525 -10.531517
v 2.154214 1.192525 -11.811667
v 3.716857 1.192525 -11.811667
v 3.716857 1.192525 -10.531518
v 3.716857 1.192525 -9.251369
v 3.716857 1.192525 -7.971219
v 3.716857 1.192525 -6.691070
v 3.716857 1.192525 -5.410920
v 4.382099 -0.155167 1.446941
v 4.382099 1.314434 1.446943
v 4.256723 1.456333 1.446943
v 4.345378 1.414772 1.446943
v 1.488972 -0.155167 1.446941
v 1.488972 1.314434 1.446943
v 1.614348 1.456333 1.446943
v 1.525694 1.414772 1.446943
v 4.382099 -0.155167 -13.091817
v 4.256723 1.456333 -13.091817
v 4.382099 1.314434 -13.091817
v 4.345378 1.414772 -13.091817
v 1.488972 -0.155167 -13.091817
v 1.614348 1.456333 -13.091817
v 1.488972 1.314434 -13.091817
v 1.525694 1.414772 -13.091817
v 3.791002 0.000000 1.446939
v 3.791002 0.000000 1.446939
v 3.791002 0.000000 -1.446939
v 3.716857 1.192525 1.446939
v 3.769286 1.177389 1.446939
v 3.791002 1.140846 1.446939
v 2.080070 0.000000 1.446939
v 2.080070 0.000000 1.446939
v 2.080070 0.000000 -1.446939
v 2.154214 1.192525 1.446939
v 2.101786 1.177389 1.446939
v 2.080070 1.140846 1.446939
v 2.080070 0.000000 -4.130770
v 3.791002 0.000000 -4.130770
v 3.769286 1.177389 -13.091817
v 3.716857 1.192525 -13.091817
v 3.791002 1.140846 -13.091817
v 3.791002 0.000000 -13.091817
v 3.791002 0.000000 -13.091817
v 2.080070 0.000000 -13.091817
v 2.080070 0.000000 -13.091817
v 2.101786 1.177389 -13.091817
v 2.154214 1.192525 -13.091817
v 2.080070 1.140846 -13.091817
v 3.791002 0.000000 -11.811667
v 2.080070 0.000000 -5.410920
v 3.791002 0.000000 -5.410919
v 3.791002 0.000000 -6.691069
v 3.791002 0.000000 -7.971219
v 3.791002 0.000000 -9.251368
v 3.791002 0.000000 -10.531517
v 2.080070 0.000000 -11.811667
v 2.080070 0.000000 -10.531518
v 2.080070 0.000000 -9.251369
v 2.080070 0.000000 -7.971219
v 2.080070 0.000000 -6.691070
vt 0.7650 0.6750
vt 0.7650 0.6927
vt 0.7551 0.6927
vt 0.7551 0.6750
vt 0.7541 0.7497
vt 0.7541 0.7673
vt 0.7442 0.7673
vt 0.7442 0.7497
vt 0.7541 0.7310
vt 0.7541 0.7487
vt 0.7442 0.7487
vt 0.7442 0.7310
vt 0.7650 0.7497
vt 0.7650 0.7673
vt 0.7551 0.7673
vt 0.7551 0.7497
vt 0.7650 0.7123
vt 0.7650 0.7300
vt 0.7551 0.7300
vt 0.7551 0.7123
vt 0.7541 0.6750
vt 0.7541 0.6927
vt 0.7442 0.6927
vt 0.7442 0.6750
vt 0.7541 0.8047
vt 0.7442 0.8047
vt 0.7442 0.7870
vt 0.7541 0.7870
vt 0.7541 0.7860
vt 0.7442 0.7860
vt 0.7442 0.7683
vt 0.7541 0.7683
vt 0.7541 0.7300
vt 0.7442 0.7300
vt 0.7442 0.7123
vt 0.7541 0.7123
vt 0.7650 0.7487
vt 0.7551 0.7487
vt 0.7551 0.7310
vt 0.7650 0.7310
vt 0.7650 0.7113
vt 0.7551 0.7113
vt 0.7551 0.6936
vt 0.7650 0.6936
vt 0.7541 0.7113
vt 0.7442 0.7113
vt 0.7442 0.6936
vt 0.7541 0.6936
vt 0.7433 0.8007
vt 0.7433 0.9995
vt 0.5660 0.9995
vt 0.5660 0.8007
vt 0.1962 0.1993
vt 0.1904 0.1993
vt 0.1904 0.0005
vt 0.1962 0.0005
vt 0.5598 0.8007
vt 0.5598 0.9995
vt 0.0005 0.9995
vt 0.0005 0.8007
vt 0.1894 0.8007
vt 0.1894 0.9995
vt 0.5589 0.1993
vt 0.3816 0.1993
vt 0.3816 0.0005
vt 0.5589 0.0005
vt 0.3687 0.1993
vt 0.3687 0.0005
vt 0.3745 0.0005
vt 0.3745 0.1993
vt 0.3755 0.1993
vt 0.3755 0.0005
vt 0.3745 0.3838
vt 0.3687 0.3838
vt 0.5589 0.3838
vt 0.3816 0.3838
vt 0.1962 0.3838
vt 0.5598 0.6162
vt 0.5660 0.6162
vt 0.1904 0.3838
vt 0.0005 0.6162
vt 0.1894 0.6162
vt 0.7433 0.6162
vt 0.3755 0.3838
vt 0.3755 0.9115
vt 0.3816 0.9115
vt 0.3816 0.9995
vt 0.3755 0.9995
vt 0.1894 0.0885
vt 0.0005 0.0885
vt 0.0005 0.0005
vt 0.1894 0.0005
vt 0.5660 0.0885
vt 0.5598 0.0885
vt 0.5598 0.0005
vt 0.5660 0.0005
vt 0.1962 0.9115
vt 0.3687 0.9115
vt 0.3687 0.9995
vt 0.1962 0.9995
vt 0.3745 0.9115
vt 0.3745 0.9995
vt 0.7433 0.0885
vt 0.7433 0.0005
vt 0.1904 0.9115
vt 0.1904 0.9995
vt 0.5589 0.9115
vt 0.5589 0.9995
vt 0.5589 0.4717
vt 0.3816 0.4717
vt 0.5589 0.5597
vt 0.3816 0.5597
vt 0.5589 0.6476
vt 0.3816 0.6476
vt 0.5589 0.7356
vt 0.3816 0.7356
vt 0.5589 0.8236
vt 0.3816 0.8236
vt 0.1962 0.4717
vt 0.1904 0.4717
vt 0.1962 0.5597
vt 0.1904 0.5597
vt 0.1962 0.6476
vt 0.1904 0.6476
vt 0.1962 0.7356
vt 0.1904 0.7356
vt 0.1962 0.8236
vt 0.1904 0.8236
vt 0.5660 0.5283
vt 0.7433 0.5283
vt 0.5660 0.4403
vt 0.7433 0.4403
vt 0.5660 0.3524
vt 0.7433 0.3524
vt 0.5660 0.2644
vt 0.7433 0.2644
vt 0.5660 0.1764
vt 0.7433 0.1764
vt 0.3745 0.4717
vt 0.3687 0.4717
vt 0.3745 0.5597
vt 0.3687 0.5597
vt 0.3745 0.6476
vt 0.3687 0.6476
vt 0.3745 0.7356
vt 0.3687 0.7356
vt 0.3745 0.8236
vt 0.3687 0.8236
vt 0.5598 0.5283
vt 0.5598 0.4403
vt 0.5598 0.3524
vt 0.5598 0.2644
vt 0.5598 0.1764
vt 0.0005 0.5283
vt 0.1894 0.5283
vt 0.0005 0.4403
vt 0.1894 0.4403
vt 0.0005 0.3524
vt 0.1894 0.3524
vt 0.0005 0.2644
vt 0.1894 0.2644
vt 0.0005 0.1764
vt 0.1894 0.1764
vt 0.3755 0.4717
vt 0.3755 0.5597
vt 0.3755 0.6476
vt 0.3755 0.7356
vt 0.3755 0.8236
vt 0.7860 0.5967
vt 0.7884 0.6028
vt 0.7508 0.6697
vt 0.7442 0.6594
vt 0.9553 0.2655
vt 0.9577 0.2594
vt 0.9995 0.3222
vt 0.9929 0.3325
vt 0.7942 0.6053
vt 0.7667 0.6740
vt 0.7688 0.2680
vt 0.9495 0.2680
vt 0.9770 0.3367
vt 0.7442 0.3367
vt 0.7860 0.4151
vt 0.7442 0.3523
vt 0.9495 0.0692
vt 0.7688 0.0692
vt 0.7442 0.0005
vt 0.9770 0.0005
vt 0.9749 0.6053
vt 0.9995 0.6740
vt 0.9577 0.0778
vt 0.9553 0.0717
vt 0.9929 0.0048
vt 0.9995 0.0151
vt 0.7884 0.4090
vt 0.7508 0.3420
vt 0.7942 0.4064
vt 0.7667 0.3377
vt 0.9749 0.4064
vt 0.9995 0.3377
vn 0.0000 1.0000 0.0000
vn -1.0000 0.0000 0.0000
vn -0.9643 -0.2649 0.0000
vn -0.1400 -0.9901 0.0000
vn -0.6114 -0.7913 0.0000
vn 1.0000 0.0000 0.0000
vn 0.9643 -0.2649 0.0000
vn 0.1400 -0.9901 0.0000
vn 0.6114 -0.7913 0.0000
vn 0.0000 0.0000 -1.0000
vn 0.0000 0.0000 1.0000
usemtl Material
s off
f 1/1/1 2/2/1 4/3/1 3/4/1
f 5/5/1 6/6/1 8/7/1 7/8/1
f 9/9/1 10/10/1 12/11/1 11/12/1
f 13/13/1 14/14/1 16/15/1 15/16/1
f 17/17/1 18/18/1 20/19/1 19/20/1
f 21/21/1 22/22/1 24/23/1 23/24/1
f 25/25/1 27/26/1 28/27/1 26/28/1
f 29/29/1 31/30/1 32/31/1 30/32/1
f 33/33/1 35/34/1 36/35/1 34/36/1
f 37/37/1 39/38/1 40/39/1 38/40/1
f 41/41/1 43/42/1 44/43/1 42/44/1
f 45/45/1 47/46/1 48/47/1 46/48/1
s 1
f 147/49/2 145/50/2 150/51/3 55/52/3
f 54/53/4 56/54/5 149/55/5 148/56/4
f 56/57/5 55/52/3 150/51/3 149/58/5
f 146/59/1 50/60/1 153/61/1 151/62/1
f 58/63/6 63/64/7 156/65/7 152/66/6
f 62/67/8 154/68/8 155/69/9 64/70/9
f 64/71/9 155/72/9 156/65/7 63/64/7
f 62/67/8 54/53/4 148/56/4 154/68/8
f 62/67/8 64/70/9 72/73/9 70/74/8
f 63/64/7 58/63/6 69/75/6 71/76/7
f 54/53/4 62/67/8 70/74/8 66/77/4
f 55/52/3 56/57/5 68/78/5 67/79/3
f 56/54/5 54/53/4 66/77/4 68/80/5
f 153/61/1 50/60/1 65/81/1 157/82/1
f 147/49/2 55/52/3 67/79/3 158/83/2
f 64/71/9 63/64/7 71/76/7 72/84/9
f 87/85/9 86/86/7 168/87/7 166/88/9
f 176/89/1 169/90/1 163/91/1 164/92/1
f 111/93/3 110/94/5 159/95/5 161/96/3
f 123/97/4 122/98/8 167/99/8 160/100/4
f 122/98/8 87/101/9 166/102/9 167/99/8
f 98/103/2 111/93/3 161/96/3 162/104/2
f 110/105/5 123/97/4 160/100/4 159/106/5
f 86/86/7 99/107/6 165/108/6 168/87/7
f 71/76/7 69/75/6 170/109/6 81/110/7
f 81/110/7 170/109/6 180/111/6 82/112/7
f 82/112/7 180/111/6 179/113/6 83/114/7
f 83/114/7 179/113/6 178/115/6 84/116/7
f 84/116/7 178/115/6 177/117/6 85/118/7
f 85/118/7 177/117/6 99/107/6 86/86/7
f 68/80/5 66/77/4 128/119/4 105/120/5
f 105/120/5 128/119/4 127/121/4 106/122/5
f 106/122/5 127/121/4 126/123/4 107/124/5
f 107/124/5 126/123/4 125/125/4 108/126/5
f 108/126/5 125/125/4 124/127/4 109/128/5
f 109/128/5 124/127/4 123/97/4 110/105/5
f 158/83/2 67/79/3 116/129/3 171/130/2
f 171/130/2 116/129/3 115/131/3 172/132/2
f 172/132/2 115/131/3 114/133/3 173/134/2
f 173/134/2 114/133/3 113/135/3 174/136/2
f 174/136/2 113/135/3 112/137/3 175/138/2
f 175/138/2 112/137/3 111/93/3 98/103/2
f 70/74/8 72/73/9 92/139/9 117/140/8
f 117/140/8 92/139/9 91/141/9 118/142/8
f 118/142/8 91/141/9 90/143/9 119/144/8
f 119/144/8 90/143/9 89/145/9 120/146/8
f 120/146/8 89/145/9 88/147/9 121/148/8
f 121/148/8 88/147/9 87/101/9 122/98/8
f 66/77/4 70/74/8 117/140/8 128/119/4
f 128/119/4 117/140/8 118/142/8 127/121/4
f 127/121/4 118/142/8 119/144/8 126/123/4
f 126/123/4 119/144/8 120/146/8 125/125/4
f 125/125/4 120/146/8 121/148/8 124/127/4
f 124/127/4 121/148/8 122/98/8 123/97/4
f 67/79/3 68/78/5 105/149/5 116/129/3
f 116/129/3 105/149/5 106/150/5 115/131/3
f 115/131/3 106/150/5 107/151/5 114/133/3
f 114/133/3 107/151/5 108/152/5 113/135/3
f 113/135/3 108/152/5 109/153/5 112/137/3
f 112/137/3 109/153/5 110/94/5 111/93/3
f 157/82/1 65/81/1 93/154/1 104/155/1
f 104/155/1 93/154/1 94/156/1 103/157/1
f 103/157/1 94/156/1 95/158/1 102/159/1
f 102/159/1 95/158/1 96/160/1 101/161/1
f 101/161/1 96/160/1 97/162/1 100/163/1
f 100/163/1 97/162/1 169/90/1 176/89/1
f 72/84/9 71/76/7 81/110/7 92/164/9
f 92/164/9 81/110/7 82/112/7 91/165/9
f 91/165/9 82/112/7 83/114/7 90/166/9
f 90/166/9 83/114/7 84/116/7 89/167/9
f 89/167/9 84/116/7 85/118/7 88/168/9
f 88/168/9 85/118/7 86/86/7 87/85/9
f 78/169/10 80/170/10 144/171/10 142/172/10
f 61/173/11 60/174/11 135/175/11 136/176/11
f 80/170/10 79/177/10 143/178/10 144/171/10
f 57/179/11 59/180/11 134/181/11 133/182/11
f 74/183/10 78/169/10 142/172/10 138/184/10
f 51/185/11 49/186/11 129/187/11 130/188/11
f 79/177/10 77/189/10 141/190/10 143/178/10
f 52/191/11 53/192/11 132/193/11 131/194/11
f 76/195/10 74/183/10 138/184/10 140/196/10
f 59/180/11 61/173/11 136/176/11 134/181/11
f 49/186/11 57/179/11 133/182/11 129/187/11
f 75/197/10 76/195/10 140/196/10 139/198/10
f 73/199/10 75/197/10 139/198/10 137/200/10
f 53/192/11 51/185/11 130/188/11 132/193/11
f 77/189/10 73/199/10 137/200/10 141/190/10
f 60/174/11 52/191/11 131/194/11 135/175/11
